<svg xmlns="http://www.w3.org/2000/svg" viewBox="0 0 1600 1000" preserveAspectRatio="xMidYMid slice">
<rect width="1600" height="1000" fill="#141414"/>
<rect width="1600" height="1000" fill="#181a1c"/><path d="M0 172 Q 400 92 800 132 T 1600 172" stroke="#3A3A3A" stroke-width="2" fill="none"/><path d="M0 186 Q 400 106 800 146 T 1600 186" stroke="#3A3A3A" stroke-width="2" fill="none"/><path d="M0 200 Q 400 120 800 160 T 1600 200" stroke="#3A3A3A" stroke-width="2" fill="none"/><path d="M0 214 Q 400 134 800 174 T 1600 214" stroke="#3A3A3A" stroke-width="2" fill="none"/><path d="M0 228 Q 400 148 800 188 T 1600 228" stroke="#3A3A3A" stroke-width="2" fill="none"/>
<g stroke="#4A4A4A" stroke-width="3" fill="none">
  <line x1="800" y1="120" x2="700" y2="900"/>
  <line x1="800" y1="120" x2="900" y2="900"/>
  <line x1="740" y1="900" x2="860" y2="900"/>
  <line x1="720" y1="300" x2="880" y2="300"/>
  <line x1="600" y1="220" x2="1000" y2="220"/>
  <line x1="650" y1="500" x2="950" y2="500"/>
  <line x1="680" y1="700" x2="920" y2="700"/>
</g>

<g stroke="#4A4A4A" stroke-width="2" fill="none">
  <rect x="1150" y="650" width="220" height="160" rx="4"/>
  <circle cx="1190" cy="650" r="18"/>
  <circle cx="1240" cy="650" r="18"/>
  <circle cx="1290" cy="650" r="18"/>
  <circle cx="1330" cy="650" r="18"/>
  <line x1="1150" y1="810" x2="1370" y2="810"/>
</g>
<line x1="0" y1="900" x2="1600" y2="900" stroke="#2A2A2A" stroke-width="2"/>
</svg>